Coordinates
version=1
nRows=60
nColumns=12
inDegrees=yes

Units are S.I. units (second, meters, Newtons, ...)
Angles are in degrees

endheader
time	SC_y	SC_z	SC_x	AC_y	AC_z	AC_x	GH_y	GH_z	GH_yy	EL_x	PS_y
       0.0              -31.34         -4.458          16.78          48.57          4.981         -8.969         -28.16          88.25         -178.7          43.21          155.4
   0.02951              -31.34         -4.453          16.78          48.57          4.979         -8.968         -28.15          88.25         -178.6          43.22          155.4
   0.05902              -31.34         -4.448          16.78          48.57          4.976         -8.966         -28.13          88.25         -178.5          43.23          155.4
   0.08853              -31.34         -4.443          16.78          48.57          4.973         -8.964         -28.12          88.25         -178.5          43.25          155.4
     0.118              -31.35         -4.438          16.79          48.58           4.97         -8.962          -28.1          88.25         -178.4          43.26          155.4
    0.1476              -31.35         -4.432          16.79          48.58          4.966          -8.96         -28.08          88.25         -178.4          43.28          155.4
    0.1771              -31.35         -4.425           16.8          48.58          4.963         -8.958         -28.06          88.25         -178.3          43.29          155.4
    0.2066              -31.36         -4.418           16.8          48.58          4.959         -8.956         -28.04          88.24         -178.2          43.31          155.4
    0.2361              -31.36         -4.411           16.8          48.59          4.955         -8.954         -28.01          88.24         -178.1          43.33          155.4
    0.2656              -31.36         -4.403          16.81          48.59           4.95         -8.951         -27.99          88.24         -178.1          43.35          155.4
    0.2951              -31.37         -4.395          16.82           48.6          4.946         -8.948         -27.96          88.24         -178.0          43.38          155.4
    0.3246              -31.37         -4.386          16.82           48.6           4.94         -8.945         -27.93          88.24         -177.9           43.4          155.4
    0.3541              -31.37         -4.376          16.83           48.6          4.935         -8.942          -27.9          88.24         -177.8          43.43          155.4
    0.3836              -31.38         -4.365          16.83          48.61          4.929         -8.939         -27.86          88.24         -177.6          43.45          155.4
    0.4131              -31.38         -4.354          16.84          48.61          4.922         -8.935         -27.83          88.24         -177.5          43.49          155.3
    0.4427              -31.39         -4.342          16.85          48.62          4.915         -8.931         -27.79          88.24         -177.4          43.52          155.3
    0.4722              -31.39         -4.328          16.86          48.63          4.908         -8.927         -27.74          88.24         -177.2          43.56          155.3
    0.5017               -31.4         -4.314          16.87          48.63          4.899         -8.922          -27.7          88.24         -177.1          43.59          155.3
    0.5312              -31.41         -4.298          16.88          48.64           4.89         -8.917         -27.64          88.24         -176.9          43.64          155.3
    0.5607              -31.42          -4.28          16.89          48.65           4.88         -8.911         -27.59          88.23         -176.7          43.68          155.3
    0.5902              -31.42         -4.261           16.9          48.66          4.869         -8.904         -27.52          88.23         -176.5          43.74          155.3
    0.6197              -31.43          -4.24          16.91          48.67          4.857         -8.898         -27.46          88.23         -176.3          43.79          155.3
    0.6492              -31.44         -4.216          16.93          48.68          4.844          -8.89         -27.38          88.23         -176.0          43.86          155.3
    0.6787              -31.45          -4.19          16.94          48.69          4.829         -8.881          -27.3          88.23         -175.7          43.93          155.3
    0.7083              -31.47         -4.162          16.96          48.71          4.813         -8.872          -27.2          88.23         -175.4           44.0          155.3
    0.7378              -31.48         -4.129          16.98          48.72          4.795         -8.861          -27.1          88.22         -175.0          44.09          155.3
    0.7673               -31.5         -4.093           17.0          48.74          4.774          -8.85         -26.98          88.22         -174.6          44.19          155.3
    0.7968              -31.51         -4.053          17.03          48.76          4.751         -8.836         -26.85          88.22         -174.2           44.3          155.3
    0.8263              -31.53         -4.007          17.06          48.78          4.725         -8.821          -26.7          88.22         -173.7          44.42          155.2
    0.8558              -31.56         -3.955          17.09           48.8          4.695         -8.804         -26.53          88.21         -173.1          44.56          155.2
    0.8853              -31.58         -3.896          17.13          48.83          4.662         -8.785         -26.34          88.21         -172.5          44.72          155.2
    0.9148              -31.61         -3.828          17.17          48.86          4.623         -8.763         -26.12           88.2         -171.7           44.9          155.2
    0.9443              -31.65         -3.749          17.22           48.9          4.578         -8.737         -25.86           88.2         -170.9          45.12          155.2
    0.9738              -31.69         -3.658          17.28          48.95          4.526         -8.707         -25.57          88.19         -169.9          45.36          155.1
     1.003              -31.73         -3.551          17.34           49.0          4.465         -8.672         -25.22          88.18         -168.7          45.65          155.1
     1.033              -31.79         -3.425          17.42          49.06          4.394         -8.631         -24.81          88.17         -167.3          45.99          155.1
     1.062              -31.85         -3.276          17.51          49.13          4.309         -8.582         -24.32          88.16         -165.7          46.39          155.0
     1.092              -31.93         -3.096          17.63          49.21          4.207         -8.523         -23.74          88.15         -163.7          46.87          155.0
     1.121              -32.02         -2.879          17.76          49.31          4.083         -8.452         -23.03          88.13         -161.3          47.46          154.9
     1.151              -32.14         -2.614          17.93          49.44          3.932         -8.365         -22.17          88.12         -158.4          48.17          154.8
      1.18              -32.28         -2.287          18.13           49.6          3.746         -8.258         -21.11          88.09         -154.8          49.06          154.7
      1.21              -32.46         -1.879          18.39          49.79          3.514         -8.124         -19.78          88.06         -150.3          50.15          154.6
     1.239              -32.68         -1.365          18.71          50.03          3.222         -7.956         -18.11          88.03         -144.7          51.54          154.5
     1.269              -32.96        -0.7116          19.11          50.34           2.85         -7.742         -15.99          87.98         -137.5           53.3          154.3
     1.298              -33.32         0.1247          19.64          50.74          2.374         -7.468         -13.27          87.92         -128.3          55.55          154.0
     1.328              -33.79          1.198          20.31          51.25          1.763         -7.116         -9.787          87.84         -116.5          58.45          153.7
     1.357              -34.38          2.569          21.16           51.9         0.9832         -6.667         -5.332          87.75         -101.5          62.14          153.3
     1.387              -35.13          4.292          22.24          52.72       0.002419         -6.102         0.2687          87.62         -82.55          66.78          152.8
     1.417              -36.04          6.393          23.55          53.71         -1.193         -5.414          7.094          87.47         -59.48          72.44          152.1
     1.446               -37.1          8.828          25.07          54.87         -2.578         -4.616          15.01           87.3         -32.74           79.0          151.4
     1.476              -38.24          11.46          26.72          56.12         -4.078         -3.752          23.57          87.11         -3.781          86.11          150.6
     1.505              -39.38           14.1          28.36          57.37         -5.578         -2.888          32.14          86.92          25.17          93.21          149.8
     1.535              -40.44          16.54          29.88          58.52         -6.964         -2.091          40.05          86.75          51.91          99.77          149.1
     1.564              -41.35          18.64          31.19          59.52         -8.159         -1.402          46.88           86.6          74.98          105.4          148.5
     1.594               -42.1          20.36          32.27          60.34          -9.14        -0.8377          52.48          86.48          93.92          110.1          148.0
     1.623              -42.69          21.73          33.12          60.99          -9.92        -0.3885          56.93          86.38          109.0          113.8          147.6
     1.653              -43.16           22.8          33.79           61.5         -10.53       -0.03689          60.42           86.3          120.8          116.7          147.3
     1.682              -43.52          23.64          34.32           61.9         -11.01         0.2371          63.14          86.24          129.9          118.9          147.0
     1.712               -43.8          24.29          34.72          62.21         -11.38         0.4512          65.26          86.19          137.1          120.7          146.8
     1.741              -44.02          24.81          35.05          62.45         -11.67         0.6196          66.93          86.16          142.8          122.1          146.7
